<?xml version="1.0" encoding="UTF-8"?>
<svg width="1200pt" height="1200pt" version="1.1" viewBox="0 0 1200 1200" xmlns="http://www.w3.org/2000/svg">
 <path d="m123.47 387.1 263.63-263.63c14.672-14.672 38.391-14.672 53.016 0 14.672 14.672 14.672 38.391 0 53.016l-263.58 263.58c-7.3125 7.3125-16.922 10.969-26.531 10.969s-19.172-3.6562-26.531-10.969c-14.672-14.672-14.672-38.391 0-53.016zm634.87-210.56c14.672-14.672 14.672-38.391 0-53.016-14.672-14.672-38.391-14.672-53.016 0l-581.86 581.76c-14.672 14.672-14.672 38.391 0 53.016 7.3125 7.3125 16.922 10.969 26.531 10.969s19.172-3.6562 26.531-10.969zm273.19-8.0156c-14.672-14.672-38.391-14.672-53.016 0l-810.05 809.95c-14.672 14.672-14.672 38.391 0 53.016 7.3125 7.3125 16.922 10.969 26.531 10.969s19.172-3.6562 26.531-10.969l810-809.95c14.672-14.672 14.672-38.391 0-53.016zm-8.0156 273.19-581.81 581.81c-14.672 14.672-14.672 38.391 0 53.016 7.3125 7.3125 16.922 10.969 26.531 10.969s19.172-3.6562 26.531-10.969l581.81-581.81c14.672-14.672 14.672-38.391 0-53.016-14.672-14.672-38.391-14.672-53.016 0zm0 318.24-263.58 263.58c-14.672 14.672-14.672 38.391 0 53.016 7.3125 7.3125 16.922 10.969 26.531 10.969s19.172-3.6562 26.531-10.969l263.58-263.58c14.672-14.672 14.672-38.391 0-53.016-14.672-14.672-38.391-14.672-53.016 0z"/>
</svg>
