<svg width="82" height="37" viewBox="0 0 82 37" fill="none" xmlns="http://www.w3.org/2000/svg">
<g id="figma-5 1">
<g id="Group 10">
<path id="Vector" d="M23.375 9.10352V24.6329L25.3695 24.6405V17.2488H30.1881V15.2924H25.3695V11.0599H31.6421V9.10352H23.375ZM35.2428 12.2551C35.9659 12.2551 36.5445 11.6689 36.5445 10.9533C36.5445 10.2378 35.9583 9.65161 35.2428 9.65161C34.5196 9.65161 33.941 10.2378 33.941 10.9533C33.941 11.6689 34.5272 12.2551 35.2428 12.2551ZM34.2303 14.2114V24.6329H36.2248V14.2114H34.2303Z" fill="#18181B"/>
<path id="Vector_2" fill-rule="evenodd" clip-rule="evenodd" d="M43.6315 13.9072C40.9748 13.9072 39.125 16.1529 39.125 18.8172C39.125 21.4816 40.9748 23.7272 43.6315 23.7272C44.8495 23.7272 45.8468 23.2553 46.5776 22.494V23.8719C46.5776 25.5999 45.2225 27.0386 43.4489 27.0386C42.8094 27.0386 42.1776 26.7951 41.6752 26.4449L40.6703 28.1805C41.4696 28.6982 42.4212 28.995 43.4412 28.995C46.2731 28.995 48.5644 26.7037 48.5644 23.8719V14.2117H46.5776V15.1404C45.8468 14.3792 44.8495 13.9072 43.6315 13.9072ZM41.1271 18.8172C41.1271 17.1653 42.3907 15.8636 43.8523 15.8636C45.3139 15.8636 46.5776 17.1653 46.5776 18.8172C46.5776 20.4691 45.3139 21.7709 43.8523 21.7709C42.3907 21.7709 41.1271 20.4691 41.1271 18.8172Z" fill="#18181B"/>
<path id="Vector_3" d="M55.7742 15.8636C54.5942 15.8636 53.6351 16.8685 53.6351 18.0484V24.6331H51.6406V14.2117H53.6351V15.1633C54.2212 14.4096 55.0814 13.9072 56.2081 13.9072C57.6088 13.9072 58.6821 14.6 59.3063 15.6657C59.9991 14.638 61.1257 13.9072 62.4883 13.9072C64.7644 13.9072 66.1803 15.7418 66.188 18.0103V24.6331H64.1935V18.0408C64.1935 16.8608 63.2343 15.856 62.0544 15.856C60.8745 15.856 59.9153 16.8608 59.9153 18.0408V24.6331H57.9209V18.0408C57.9133 16.8608 56.9541 15.8636 55.7742 15.8636Z" fill="#18181B"/>
<path id="Vector_4" fill-rule="evenodd" clip-rule="evenodd" d="M76.8305 15.3916C75.9399 14.4705 74.7219 13.9072 73.3136 13.9072C70.3448 13.9072 68.2285 16.4269 68.2285 19.4262C68.2285 22.4255 70.3372 24.9452 73.3136 24.9452C74.7219 24.9452 75.9399 24.3743 76.8305 23.4608V24.6331H78.825V14.2117H76.8305V15.3916ZM70.2306 19.4262C70.2306 17.4394 71.7531 15.8636 73.5344 15.8636C75.3081 15.8636 76.8382 17.4318 76.8382 19.4262C76.8382 21.4131 75.3157 22.9888 73.5344 22.9888C71.7531 22.9812 70.2306 21.4131 70.2306 19.4262Z" fill="#18181B"/>
</g>
<g id="Group 9">
<path id="Vector_5" d="M8.84961 18.6403C8.84961 16.4854 10.5966 14.7295 12.7605 14.7295C14.9154 14.7295 16.6713 16.4765 16.6713 18.6403C16.6713 20.7953 14.9243 22.5512 12.7605 22.5512C10.6055 22.5512 8.84961 20.7953 8.84961 18.6403Z" fill="#18181B"/>
<path id="Vector_6" d="M0.548828 26.9431C0.548828 24.7881 2.29585 23.0322 4.45968 23.0322H8.37053V26.9431C8.37053 29.098 6.62351 30.8539 4.45968 30.8539C2.29585 30.8539 0.548828 29.1069 0.548828 26.9431Z" fill="#18181B"/>
<path id="Vector_7" d="M8.84961 6.42781V14.2407H12.7605C14.9154 14.2407 16.6713 12.4936 16.6713 10.3298C16.6713 8.17484 14.9243 6.41895 12.7605 6.41895H8.84961V6.42781Z" fill="#18181B"/>
<path id="Vector_8" d="M0.548828 10.3386C0.548828 12.4935 2.29585 14.2494 4.45968 14.2494H8.37053V6.42773H4.45968C2.29585 6.42773 0.548828 8.17476 0.548828 10.3386Z" fill="#18181B"/>
<path id="Vector_9" d="M0.548828 18.6403C0.548828 20.7953 2.29585 22.5512 4.45968 22.5512H8.37053V14.7295H4.45968C2.29585 14.7295 0.548828 16.4854 0.548828 18.6403Z" fill="#18181B"/>
</g>
</g>
</svg>
