<svg width="102" height="37" viewBox="0 0 102 37" fill="none" xmlns="http://www.w3.org/2000/svg">
<g id="Company logo">
<g id="Vector">
<path fill-rule="evenodd" clip-rule="evenodd" d="M13.0725 4.38574C5.84994 4.38574 0 10.2357 0 17.4582C0 23.2428 3.742 28.1287 8.93832 29.8608C9.59194 29.9752 9.83705 29.583 9.83705 29.2398C9.83705 28.9294 9.82071 27.8999 9.82071 26.8051C6.53625 27.4097 5.68654 26.0044 5.42509 25.2691C5.27802 24.8932 4.64074 23.733 4.08516 23.4226C3.62762 23.1775 2.97399 22.5729 4.06881 22.5565C5.09827 22.5402 5.8336 23.5043 6.07871 23.8964C7.25524 25.8737 9.13441 25.3181 9.88608 24.9749C10.0005 24.1252 10.3436 23.5533 10.7194 23.2265C7.81082 22.8997 4.77146 21.7722 4.77146 16.7719C4.77146 15.3503 5.27802 14.1738 6.11139 13.2587C5.98067 12.9319 5.52313 11.592 6.24212 9.79449C6.24212 9.79449 7.33694 9.45133 9.83705 11.1344C10.8829 10.8403 11.994 10.6932 13.1052 10.6932C14.2163 10.6932 15.3275 10.8403 16.3733 11.1344C18.8734 9.43499 19.9682 9.79449 19.9682 9.79449C20.6872 11.592 20.2297 12.9319 20.099 13.2587C20.9323 14.1738 21.4389 15.334 21.4389 16.7719C21.4389 21.7885 18.3832 22.8997 15.4746 23.2265C15.9484 23.635 16.357 24.4193 16.357 25.6449C16.357 27.3933 16.3406 28.7986 16.3406 29.2398C16.3406 29.583 16.5857 29.9915 17.2394 29.8608C19.8345 28.9847 22.0895 27.3168 23.6871 25.092C25.2847 22.8671 26.1443 20.1973 26.145 17.4582C26.145 10.2357 20.2951 4.38574 13.0725 4.38574Z" fill="#18181B"/>
<path d="M60.9418 23.768H60.9113C60.925 23.768 60.9342 23.7833 60.9479 23.7848H60.9571L60.9418 23.7695V23.768ZM60.9479 23.7848C60.8061 23.7863 60.4492 23.861 60.0725 23.861C58.8829 23.861 58.4711 23.312 58.4711 22.5952V17.82H60.896C61.0333 17.82 61.1401 17.698 61.1401 17.5302V14.9375C61.1401 14.8003 61.0181 14.6783 60.896 14.6783H58.4711V11.4602C58.4711 11.3382 58.3948 11.262 58.2576 11.262H54.9633C54.8261 11.262 54.7498 11.3382 54.7498 11.4602V14.7698C54.7498 14.7698 53.0874 15.1816 52.9807 15.1968C52.8586 15.2273 52.7824 15.3341 52.7824 15.4561V17.5302C52.7824 17.698 52.9044 17.82 53.0417 17.82H54.7345V22.8224C54.7345 26.5437 57.3273 26.925 59.0964 26.925C59.9047 26.925 60.8808 26.6657 61.0333 26.5895C61.1248 26.559 61.1706 26.4522 61.1706 26.3455V24.0578C61.1727 23.9929 61.1513 23.9294 61.1104 23.879C61.0695 23.8286 61.0118 23.7946 60.9479 23.7833V23.7848ZM97.0873 20.428C97.0873 17.6675 95.9739 17.3015 94.7996 17.4235C93.8845 17.4845 93.1524 17.942 93.1524 17.942V23.3105C93.1524 23.3105 93.8997 23.829 95.0131 23.8595C96.584 23.9053 97.0873 23.341 97.0873 20.428ZM100.793 20.184C100.793 25.4151 99.1004 26.9098 96.1417 26.9098C93.6405 26.9098 92.2984 25.6439 92.2984 25.6439C92.2984 25.6439 92.2374 26.3455 92.1611 26.437C92.1154 26.5285 92.0391 26.559 91.9476 26.559H89.6904C89.5379 26.559 89.4006 26.437 89.4006 26.2997L89.4311 9.35558C89.4311 9.21831 89.5531 9.0963 89.6904 9.0963H92.9389C93.0762 9.0963 93.1982 9.21831 93.1982 9.35558V15.1053C93.1982 15.1053 94.4488 14.297 96.2789 14.297L96.2637 14.2665C98.0938 14.2665 100.793 14.9528 100.793 20.184ZM87.4942 14.6783H84.2915C84.1237 14.6783 84.0322 14.8003 84.0322 14.968V23.2647C84.0322 23.2647 83.1934 23.8595 82.0495 23.8595C80.9057 23.8595 80.5702 23.341 80.5702 22.1971V14.9528C80.5702 14.8155 80.4482 14.6935 80.3109 14.6935H77.0471C76.9099 14.6935 76.7878 14.8155 76.7878 14.9528V22.7462C76.7878 26.1014 78.6638 26.9403 81.2412 26.9403C83.3611 26.9403 85.0845 25.7659 85.0845 25.7659C85.0845 25.7659 85.1608 26.3607 85.2065 26.4522C85.237 26.5285 85.3438 26.5895 85.4506 26.5895H87.4942C87.662 26.5895 87.7535 26.4675 87.7535 26.3302L87.784 14.9375C87.784 14.8003 87.662 14.6783 87.4942 14.6783ZM51.3488 14.663H48.1003C47.963 14.663 47.841 14.8003 47.841 14.968V26.1624C47.841 26.4675 48.0392 26.5742 48.2985 26.5742H51.2268C51.5318 26.5742 51.608 26.437 51.608 26.1624V14.9223C51.608 14.785 51.486 14.663 51.3488 14.663ZM49.7474 9.50809C48.573 9.50809 47.6427 10.4384 47.6427 11.6128C47.6427 12.7871 48.573 13.7174 49.7474 13.7174C50.8912 13.7174 51.8216 12.7871 51.8216 11.6128C51.8216 10.4384 50.8912 9.50809 49.7474 9.50809ZM74.8967 9.12681H71.6787C71.5414 9.12681 71.4194 9.24882 71.4194 9.38608V15.6238H66.3712V9.38608C66.3712 9.24882 66.2492 9.12681 66.112 9.12681H62.8635C62.7262 9.12681 62.6042 9.24882 62.6042 9.38608V26.3302C62.6042 26.4675 62.7415 26.5895 62.8635 26.5895H66.112C66.2492 26.5895 66.3712 26.4675 66.3712 26.3302V19.0859H71.4194L71.3889 26.3302C71.3889 26.4675 71.5109 26.5895 71.6482 26.5895H74.8967C75.034 26.5895 75.156 26.4675 75.156 26.3302V9.38608C75.156 9.24882 75.034 9.12681 74.8967 9.12681ZM46.1176 16.6304V25.3846C46.1176 25.4456 46.1023 25.5524 46.0261 25.5829C46.0261 25.5829 44.1197 26.9403 40.9779 26.9403C37.1804 26.9403 32.6812 25.7507 32.6812 17.9115C32.6812 10.0724 36.6161 8.45575 40.4594 8.471C43.7842 8.471 45.1263 9.21831 45.3398 9.35558C45.4008 9.43183 45.4313 9.49284 45.4313 9.56909L44.7907 12.2838C44.7907 12.4211 44.6535 12.5888 44.4857 12.5431C43.9367 12.3753 43.1131 12.0398 41.1762 12.0398C38.9343 12.0398 36.5246 12.6803 36.5246 17.7285C36.5246 22.7767 38.8122 23.3715 40.4594 23.3715C41.8625 23.3715 42.3658 23.2037 42.3658 23.2037V19.6959H40.1239C39.9561 19.6959 39.8341 19.5739 39.8341 19.4366V16.6304C39.8341 16.4932 39.9561 16.3711 40.1239 16.3711H45.8278C45.9956 16.3711 46.1176 16.4932 46.1176 16.6304Z" fill="#18181B"/>
</g>
</g>
</svg>
