<svg width="88" height="37" viewBox="0 0 88 37" fill="none" xmlns="http://www.w3.org/2000/svg">
<g id="Company logo" clip-path="url(#clip0_442_48644)">
<path id="Vector" d="M26.39 16.137H18.3508L25.3128 12.1382L23.9322 9.75824L16.9693 13.757L20.988 6.83137L18.5961 5.45762L14.5765 12.3815V4.38574H11.8135V12.3824L7.7939 5.45762L5.40112 6.83137L9.41986 13.7552L2.45873 9.75824L1.07723 12.1382L8.03924 16.137H0V18.8854H8.03836L1.07723 22.8841L2.45785 25.2641L9.42074 21.2654L5.40112 28.191L7.79302 29.5647L11.8135 22.64V30.6357H14.5765V22.4685L18.67 29.521L20.9133 28.233L16.8189 21.1787L23.9304 25.2632L25.3119 22.8832L18.3508 18.8845H26.3892V16.137H26.39ZM13.195 21.247C12.7018 21.247 12.2134 21.1504 11.7577 20.9627C11.302 20.7749 10.8879 20.4997 10.5391 20.1527C10.1903 19.8057 9.91363 19.3938 9.72483 18.9404C9.53603 18.487 9.43883 18.0011 9.43877 17.5103C9.43871 17.0195 9.5358 16.5336 9.72449 16.0801C9.91319 15.6267 10.1898 15.2147 10.5385 14.8676C10.8872 14.5206 11.3012 14.2452 11.7569 14.0574C12.2125 13.8695 12.7009 13.7728 13.1941 13.7727C14.1902 13.7726 15.1456 14.1662 15.85 14.867C16.5545 15.5678 16.9503 16.5183 16.9504 17.5094C16.9505 18.5006 16.5549 19.4512 15.8506 20.1521C15.1464 20.853 14.1911 21.2469 13.195 21.247Z" fill="#18181B"/>
<path id="Vector_2" d="M33.5117 27.1119V7.90918H37.0538V27.1119H33.5117ZM67.4846 14.0622H70.8667V15.6547C71.586 14.3816 73.2647 13.6912 74.7025 13.6912C76.4877 13.6912 77.9254 14.4612 78.5911 15.8656C79.6288 14.2731 81.0147 13.6912 82.7462 13.6912C85.1697 13.6912 87.486 15.1498 87.486 18.6507V27.1119H84.0512V19.3673C84.0512 17.9612 83.3582 16.8998 81.7331 16.8998C80.2145 16.8998 79.3087 18.0679 79.3087 19.4741V27.1128H75.7947V19.3673C75.7947 17.9612 75.0754 16.8998 73.4767 16.8998C71.9316 16.8998 71.0259 18.0417 71.0259 19.4741V27.1128H67.4846V14.0622ZM45.0588 27.4899C41.0682 27.4899 38.1786 24.5438 38.1786 20.5871C38.1786 16.6933 41.0594 13.6781 45.0588 13.6781C49.0775 13.6781 51.939 16.7213 51.939 20.5871C51.939 24.5158 49.0476 27.4899 45.0588 27.4899ZM45.0588 16.8718C44.069 16.8732 43.1201 17.2652 42.4204 17.9619C41.7208 18.6586 41.3274 19.603 41.3267 20.5879C41.3274 21.5728 41.7208 22.5172 42.4204 23.2139C43.1201 23.9106 44.069 24.3027 45.0588 24.3041C46.0485 24.3024 46.9971 23.9103 47.6966 23.2136C48.3961 22.517 48.7893 21.5727 48.79 20.5879C48.7893 19.6032 48.3961 18.6589 47.6966 17.9622C46.9971 17.2656 46.0485 16.8734 45.0588 16.8718ZM59.5043 27.4899C55.5137 27.4899 52.6241 24.5438 52.6241 20.5871C52.6241 16.6933 55.5049 13.6781 59.5043 13.6781C63.523 13.6781 66.3845 16.7213 66.3845 20.5871C66.3845 24.5158 63.4914 27.4899 59.5043 27.4899ZM59.5043 16.8272C58.5031 16.8288 57.5434 17.2254 56.8357 17.9301C56.128 18.6348 55.7301 19.59 55.7291 20.5862C55.7301 21.5824 56.128 22.5376 56.8357 23.2422C57.5434 23.9469 58.5031 24.3436 59.5043 24.3452C60.5055 24.3436 61.4652 23.9469 62.1729 23.2422C62.8806 22.5376 63.2785 21.5824 63.2794 20.5862C63.2785 19.59 62.8806 18.6348 62.1729 17.9301C61.4652 17.2254 60.5055 16.8288 59.5043 16.8272Z" fill="#18181B"/>
</g>
<defs>
<clipPath id="clip0_442_48644">
<rect width="87.75" height="36" fill="white" transform="translate(0 0.635742)"/>
</clipPath>
</defs>
</svg>
