<svg width="97" height="37" viewBox="0 0 97 37" fill="none" xmlns="http://www.w3.org/2000/svg">
<g id="Company logo" clip-path="url(#clip0_442_48610)">
<g id="Vector">
<path d="M33.7017 26.7166V15.8003H33.8962L41.8422 26.7166H44.3427V10.6859H41.5644V21.5746H41.3699L33.4239 10.6859H30.9234V26.7166H33.7017ZM52.2053 26.964C55.8727 26.964 58.1232 24.5993 58.1232 20.6397C58.1232 16.7077 55.8727 14.3155 52.2053 14.3155C48.5657 14.3155 46.2875 16.7077 46.2875 20.6397C46.3153 24.5993 48.538 26.964 52.2053 26.964ZM52.2053 24.6543C50.2605 24.6543 49.1492 23.197 49.1492 20.6397C49.1492 18.11 50.2605 16.6252 52.2053 16.6252C54.1502 16.6252 55.2615 18.11 55.2615 20.6397C55.2615 23.197 54.1502 24.6543 52.2053 24.6543ZM60.6514 11.5933V14.6454H58.7066V16.8452H60.6514V23.4719C60.6514 25.8367 61.7628 26.7716 64.5967 26.7716C65.1245 26.7716 65.6524 26.7166 66.0692 26.6341V24.4893C65.7358 24.5168 65.5135 24.5443 65.1245 24.5443C63.9576 24.5443 63.4298 24.0219 63.4298 22.812V16.8452H66.0692V14.6454H63.4298V11.5933H60.6514ZM67.7362 26.7166H70.5145V14.5629H67.7362V26.7166ZM69.1253 12.5556C70.0422 12.5556 70.7923 11.8132 70.7923 10.9058C70.7923 9.97093 70.0422 9.22852 69.1253 9.22852C68.2085 9.22852 67.4583 9.97093 67.4583 10.9058C67.4583 11.8132 68.2085 12.5556 69.1253 12.5556ZM78.1271 26.964C81.7945 26.964 84.0449 24.5993 84.0449 20.6397C84.0449 16.7077 81.7945 14.3155 78.1271 14.3155C74.4875 14.3155 72.2093 16.7077 72.2093 20.6397C72.2093 24.5993 74.4319 26.964 78.1271 26.964ZM78.1271 24.6543C76.1823 24.6543 75.0709 23.197 75.0709 20.6397C75.0709 18.11 76.1823 16.6252 78.1271 16.6252C80.0441 16.6252 81.1832 18.11 81.1832 20.6397C81.1554 23.197 80.0441 24.6543 78.1271 24.6543ZM85.6841 26.7166H88.4624V19.6499C88.4624 17.8626 89.5182 16.7352 91.1574 16.7352C92.8522 16.7352 93.6301 17.6701 93.6301 19.5124V26.7166H96.4084V18.8524C96.4084 15.9378 94.9081 14.3155 92.1854 14.3155C90.3517 14.3155 89.1292 15.1404 88.5458 16.5152H88.3513V14.5629H85.6563C85.6841 14.5629 85.6841 26.7166 85.6841 26.7166Z" fill="#18181B"/>
<path fill-rule="evenodd" clip-rule="evenodd" d="M4.28404 9.65982C5.09268 10.3122 5.38516 10.2607 6.8992 10.1577L21.1621 9.29931C21.4718 9.29931 21.2137 8.9903 21.1105 8.95597L18.7362 7.25642C18.2889 6.91308 17.6695 6.50107 16.5168 6.60407L2.71839 7.61693C2.21944 7.66843 2.11621 7.92594 2.32267 8.11478L4.28404 9.65982ZM5.14429 12.9731V27.9428C5.14429 28.7496 5.54001 29.0415 6.45187 28.99L22.1256 28.0801C23.0375 28.0286 23.1407 27.4793 23.1407 26.8269V11.9602C23.1407 11.3079 22.8826 10.9473 22.3321 10.9988L5.95292 11.9602C5.35075 12.0117 5.14429 12.3207 5.14429 12.9731ZM20.6116 13.7799C20.7148 14.2263 20.6116 14.6898 20.1642 14.7413L19.4072 14.8958V25.9514C18.7534 26.2947 18.1513 26.5007 17.6351 26.5007C16.8265 26.5007 16.62 26.2432 16.0178 25.4879L11.08 17.7455V25.2304L12.6457 25.5737C12.6457 25.5737 12.6457 26.4836 11.3897 26.4836L7.91429 26.6896C7.81106 26.4836 7.91429 25.9857 8.25839 25.8827L9.17026 25.6252V15.737L7.91429 15.634C7.81106 15.1876 8.06914 14.5353 8.77454 14.4838L12.508 14.2263L17.6523 22.0545V15.1361L16.3447 14.9816C16.2415 14.4323 16.6544 14.0203 17.1534 13.9688L20.6116 13.7799ZM1.56565 6.24356L15.9318 5.19637C17.6867 5.04187 18.1513 5.14487 19.2524 5.95172L23.8289 9.16197C24.5859 9.71132 24.844 9.86582 24.844 10.4667V28.0973C24.844 29.196 24.4483 29.8483 23.0375 29.9513L6.36585 30.9642C5.29914 31.0157 4.80019 30.8612 4.24963 30.1573L0.860249 25.7797C0.258075 24.9729 0 24.372 0 23.6682V7.99461C0 7.08475 0.412919 6.34657 1.56565 6.24356Z" fill="#18181B"/>
</g>
</g>
<defs>
<clipPath id="clip0_442_48610">
<rect width="96.75" height="36" fill="white" transform="translate(0 0.635742)"/>
</clipPath>
</defs>
</svg>
