<svg width="91" height="37" viewBox="0 0 91 37" fill="none" xmlns="http://www.w3.org/2000/svg">
<g id="Company logo" clip-path="url(#clip0_442_48613)">
<path id="Vector" d="M28.4437 24.9561L29.5448 22.3825C30.7504 23.2753 32.3229 23.7478 33.8958 23.7478C35.0491 23.7478 35.7829 23.3016 35.7829 22.6189C35.7566 20.728 28.837 22.1986 28.7843 17.4447C28.758 15.0286 30.9076 13.164 33.9484 13.164C35.7566 13.164 37.5656 13.6106 38.8497 14.635L37.8208 17.2635C36.6393 16.5037 35.18 15.9741 33.7909 15.9741C32.8473 15.9741 32.218 16.4203 32.218 16.9985C32.2443 18.8631 39.217 17.8387 39.2956 22.3825C39.2956 24.8512 37.1983 26.5846 34.2101 26.5846C32.0086 26.5846 29.9903 26.0594 28.4434 24.9561H28.4437ZM72.2873 21.4506C72.0093 21.9444 71.605 22.3554 71.1159 22.6415C70.6267 22.9275 70.0702 23.0783 69.5035 23.0783C67.7374 23.0783 66.3059 21.6438 66.3059 19.8743C66.3059 18.1048 67.7374 16.6703 69.5035 16.6703C70.0702 16.6703 70.6267 16.8211 71.1159 17.1071C71.605 17.3932 72.0093 17.8042 72.2873 18.298L75.3484 16.5989C74.2019 14.5497 72.0147 13.164 69.5035 13.164C65.8048 13.164 62.8064 16.168 62.8064 19.8743C62.8064 23.5802 65.8048 26.5846 69.5035 26.5846C72.0147 26.5846 74.2019 25.1989 75.3484 23.1497L72.2873 21.4506ZM41.282 26.3218H45.1089V7.57812H41.2824L41.282 26.3218ZM77.2811 7.57812V26.3218H81.108V20.7062L85.6428 26.3218H90.5343L84.7676 19.6506L90.1148 13.4257H85.433L81.108 18.601V7.57812H77.2811ZM56.8991 13.4264V14.95C56.2702 13.8993 54.7236 13.164 53.0985 13.164C49.7433 13.164 47.0961 16.132 47.0961 19.8611C47.0961 23.5903 49.7433 26.5846 53.0985 26.5846C54.7236 26.5846 56.2702 25.8493 56.8991 24.7986V26.3218H60.726V13.4264H56.8991ZM56.8991 21.4765C56.3487 22.3956 55.1954 23.0779 53.9112 23.0779C52.1448 23.0779 50.7132 21.6438 50.7132 19.8743C50.7132 18.1048 52.1448 16.6703 53.9112 16.6703C55.1954 16.6703 56.3487 17.3793 56.8991 18.3244V21.4765Z" fill="#18181B"/>
<g id="Group 11">
<path id="Vector_2" d="M8.23354 7.16309C6.99336 7.16309 5.98813 8.17057 5.98813 9.413C5.98783 9.70817 6.04568 10.0005 6.15836 10.2733C6.27104 10.5461 6.43635 10.7941 6.64486 11.003C6.85336 11.2119 7.10098 11.3777 7.37357 11.491C7.64615 11.6042 7.93837 11.6626 8.23354 11.6629H10.4793V9.413C10.4798 8.81685 10.2435 8.24491 9.82235 7.82298C9.40119 7.40105 8.82969 7.16368 8.23354 7.16309ZM8.23354 13.1629H2.24541C1.00523 13.1629 0 14.1704 0 15.4132C0 16.6556 1.00523 17.6631 2.24541 17.6631H8.23391C9.47372 17.6631 10.4793 16.6556 10.4793 15.4132C10.4793 14.1704 9.47372 13.1629 8.23354 13.1629Z" fill="#18181B"/>
<path id="Vector_3" d="M22.4559 15.4132C22.4559 14.1704 21.4503 13.1629 20.2101 13.1629C18.9699 13.1629 17.9647 14.1704 17.9647 15.4132V17.6631H20.2101C20.8063 17.6625 21.3778 17.4251 21.7989 17.0032C22.2201 16.5813 22.4564 16.0093 22.4559 15.4132ZM16.4678 15.4132V9.413C16.4683 8.81685 16.2319 8.24491 15.8108 7.82298C15.3896 7.40105 14.8181 7.16368 14.222 7.16309C12.9818 7.16309 11.9766 8.17057 11.9766 9.413V15.4128C11.9766 16.656 12.9818 17.6635 14.222 17.6635C14.8181 17.6629 15.3896 17.4255 15.8108 17.0036C16.2319 16.5816 16.4683 16.0097 16.4678 15.4135" fill="#18181B"/>
<path id="Vector_4" d="M14.222 29.6631C14.8181 29.6625 15.3896 29.4251 15.8108 29.0032C16.2319 28.5813 16.4683 28.0093 16.4678 27.4132C16.4683 26.817 16.2319 26.2451 15.8108 25.8231C15.3896 25.4012 14.8181 25.1638 14.222 25.1632H11.9766V27.4132C11.9766 28.6556 12.9818 29.6631 14.222 29.6631ZM14.222 23.6633H20.2105C21.4503 23.6633 22.4559 22.6558 22.4559 21.413C22.4564 20.8169 22.2201 20.2449 21.7989 19.823C21.3778 19.4011 20.8063 19.1637 20.2101 19.1631H14.222C12.9818 19.1631 11.9766 20.1706 11.9766 21.413C11.9763 21.7082 12.0341 22.0005 12.1468 22.2733C12.2595 22.5461 12.4248 22.7941 12.6333 23.003C12.8418 23.2119 13.0894 23.3777 13.362 23.491C13.6346 23.6042 13.9268 23.6626 14.222 23.6629" fill="#18181B"/>
<path id="Vector_5" d="M1.13298e-06 21.413C-0.00029522 21.7082 0.0575489 22.0005 0.170231 22.2733C0.282913 22.5461 0.448226 22.7941 0.656731 23.003C0.865237 23.2119 1.11285 23.3777 1.38544 23.491C1.65802 23.6042 1.95024 23.6626 2.24541 23.6629C2.84156 23.6623 3.41306 23.425 3.83422 23.003C4.25537 22.5811 4.49169 22.0092 4.49119 21.413V19.1631H2.24541C1.00523 19.1631 1.13298e-06 20.1706 1.13298e-06 21.413ZM5.98813 21.413V27.4128C5.98813 28.6556 6.99336 29.6631 8.23354 29.6631C8.82969 29.6625 9.40119 29.4251 9.82235 29.0032C10.2435 28.5813 10.4798 28.0093 10.4793 27.4132V21.413C10.4796 21.1178 10.4218 20.8254 10.3091 20.5526C10.1964 20.2798 10.031 20.0318 9.82246 19.8229C9.61391 19.6139 9.36625 19.4481 9.09363 19.3349C8.821 19.2217 8.52874 19.1633 8.23354 19.1631C6.99336 19.1631 5.98813 20.1706 5.98813 21.413Z" fill="#18181B"/>
</g>
</g>
<defs>
<clipPath id="clip0_442_48613">
<rect width="90.75" height="36" fill="white" transform="translate(0 0.635742)"/>
</clipPath>
</defs>
</svg>
