<svg xmlns="http://www.w3.org/2000/svg" width="1200" height="1200" viewBox="0 0 1200 1200" fill="none">
<g clip-path="url(#clip0_1_2)">
<path d="M1197 0H3C1.34315 0 0 1.34315 0 3V1197C0 1198.66 1.34315 1200 3 1200H1197C1198.66 1200 1200 1198.66 1200 1197V3C1200 1.34315 1198.66 0 1197 0Z" fill="hsl(0 0% 96%)"/>
<path d="M631.558 423.697L618.231 416.317V477.511L631.558 484.984V423.697Z" fill="black"/>
<path d="M658.403 438.781L645.06 431.324V492.597L658.403 499.993V438.781Z" fill="black"/>
<path d="M684.994 453.79L671.667 446.409V507.604L684.994 515V453.79Z" fill="black"/>
<path d="M456.954 512.867L470.281 520.263V476.5L456.954 483.88V512.867Z" fill="black"/>
<path d="M443.612 505.407V491.504L431 498.486L443.612 505.407Z" fill="black"/>
<path d="M765.284 498.653L752.02 491.257V506.111L738.677 513.491V483.876L725.429 476.496V520.721L712.086 528.117V468.794L698.504 461.168V522.455L710.466 529.206V653.187L709.814 653.571L698.504 647.295V659.938L685.002 667.319V639.438L671.675 631.812V674.79L658.411 682.401V624.185L645.068 616.574V689.799L631.566 697.179V608.949L618.239 601.322V704.559L604.896 712.262V593.709L598.383 589.535L598.637 466.425L604.896 470.123V408.928L597.907 405L592.284 408.054V469.494L578.797 476.875V415.68L565.454 423.061V484.269L552.111 491.726V430.685L538.863 438.066V499.107L525.282 506.503V445.537L512.018 453.148V513.957L498.675 521.583V460.526L483.791 469.011V527.626L485.824 528.731L486.317 653.556L498.675 660.554V646.651L512.018 639.025V668.18L525.282 675.637V631.399L538.863 623.542V683.019L552.111 690.645V615.931L565.454 608.304V698.024L578.797 705.497V600.601L592.284 592.99V713.108L598.383 716.576V716.33V778L765.522 684.751L765.76 498.636L765.284 498.653Z" fill="black"/>
</g>
<defs>
<clipPath id="clip0_1_2">
<rect width="1200" height="1200" fill="white"/>
</clipPath>
</defs>
</svg>