<svg width="1200" height="1200" viewBox="0 0 1200 1200" fill="none" xmlns="http://www.w3.org/2000/svg">
<g clip-path="url(#clip0_3_29)">
<path d="M1197 0H3C1.34315 0 0 1.34315 0 3V1197C0 1198.66 1.34315 1200 3 1200H1197C1198.66 1200 1200 1198.66 1200 1197V3C1200 1.34315 1198.66 0 1197 0Z" fill="hsl(0 0% 96%)"/>
<path d="M760.466 507.573V507.16L759.973 507.398L749.97 501.3L698.266 532.439L707.365 537.568L707.206 537.806L706.968 662.697L599.736 724.722L593.877 721.387V782.935L598.355 785.619V787L599.736 786.27L601.118 787V785.619L760.209 693.583L760.466 507.573Z" fill="black"/>
<path d="M504.611 731.229L515.758 737.724V676.193L504.611 669.683V731.229Z" fill="black"/>
<path d="M492.257 537.81L491.844 537.571L537.541 510.99L650.298 443.585L639.818 437.488L481.757 531.793L482.169 531.967V718.226L493.142 724.72V663.173L492.491 662.696L492.257 537.81Z" fill="black"/>
<path d="M526.968 744.234L537.703 750.49V688.943L526.968 682.686V744.234Z" fill="black"/>
<path d="M571.524 769.911L582.497 776.422V714.874L571.524 708.364V769.911Z" fill="black"/>
<path d="M548.93 757.005L560.14 763.499V701.874L548.93 695.379V757.005Z" fill="black"/>
<path d="M687.045 525.692L738.765 494.808L728.19 488.79L676.487 519.69L687.045 525.692Z" fill="black"/>
<path d="M606.49 418.065L599.249 414L439 507.163V507.401L439.254 693.582L448.432 698.79V512.532L606.49 418.065Z" fill="black"/>
<path d="M628.594 431.069L617.621 424.559L459.577 519.036V705.295L470.788 711.71V525.53L470.55 525.291L628.594 431.069Z" fill="black"/>
<path d="M643.153 500.174L694.856 469.274L683.884 463.018L632.164 493.918L643.153 500.174Z" fill="black"/>
<path d="M620.796 487.407L672.733 456.586L661.76 450.091L609.806 480.976L620.796 487.407Z" fill="black"/>
<path d="M665.338 513.179L717.058 482.279L706.086 476.022L654.365 506.923L665.338 513.179Z" fill="black"/>
<path d="M666.483 538.06L655.907 531.963L627.452 549.033L638.028 555.051L666.483 538.06Z" fill="black"/>
<path d="M605.348 536.028L616.321 542.284L644.697 525.532L633.804 519.196L605.348 536.028Z" fill="black"/>
<path d="M677.628 544.557L649.411 561.548L657.462 566.439V634.067L598.837 668.142L539.976 634.067L539.738 566.263L535.911 564.23L622.34 512.527L611.367 506.27L524.939 557.733L513.966 551.715L600.222 499.761L598.364 498.617L511.126 549.921V650.896L598.605 701.468L686.402 650.896V549.684L677.628 544.557Z" fill="black"/>
</g>
<defs>
<clipPath id="clip0_3_29">
<rect width="1200" height="1200" fill="white"/>
</clipPath>
</defs>
</svg>
