<svg width="1200" height="1200" viewBox="0 0 1200 1200" fill="none" xmlns="http://www.w3.org/2000/svg">
<g clip-path="url(#clip0_3_38)">
<path d="M1197 0H3C1.34315 0 0 1.34315 0 3V1197C0 1198.66 1.34315 1200 3 1200H1197C1198.66 1200 1200 1198.66 1200 1197V3C1200 1.34315 1198.66 0 1197 0Z" fill="hsl(0 0% 96%)"/>
<path d="M596.023 413L574.454 425.491H617.733L596.023 413Z" fill="black"/>
<path d="M565.8 707.109H596.416V694.368H544.088L565.8 707.109Z" fill="black"/>
<path d="M596.417 724.75V720.008H588.403L596.417 724.75Z" fill="black"/>
<path d="M640.101 438.481H552.103L530.377 451.144H661.812L640.101 438.481Z" fill="black"/>
<path d="M743.659 515.336H667.211L644.86 502.438H750.482L728.756 489.932H623.037L600.685 477.034H706.307L684.191 464.043H508.038L486.077 476.784H591.7L569.348 489.697H463.725L442 502.204H547.622L525.27 515.101H450.172L471.099 527.67H504.361L487.925 537.281L493.858 540.724H488.082V553.231L515.177 553.246L537.7 566.144H488.097V578.885H559.909L582.261 591.783L582.668 592.017L488.316 592.033V604.539H596.586V600.047L659.573 563.75L704.856 538.111L704.621 662.172L596.588 724.689V786L757.748 692.883L757.983 507.12L743.659 515.336ZM688.028 527.67H722.495L704.871 537.923L688.028 527.67Z" fill="black"/>
<path d="M488.304 643.077H596.337V655.583H488.304V643.077Z" fill="black"/>
<path d="M521.566 681.471H596.417V668.73H499.37L521.566 681.471Z" fill="black"/>
<path d="M488.304 617.672H596.574V630.179H488.304V617.672Z" fill="black"/>
</g>
<defs>
<clipPath id="clip0_3_38">
<rect width="1200" height="1200" fill="white"/>
</clipPath>
</defs>
</svg>
