<svg width="1200" height="1200" viewBox="0 0 1200 1200" fill="none" xmlns="http://www.w3.org/2000/svg">
<g clip-path="url(#clip0_3_47)">
<path d="M1197 0H3C1.34315 0 0 1.34315 0 3V1197C0 1198.66 1.34315 1200 3 1200H1197C1198.66 1200 1200 1198.66 1200 1197V3C1200 1.34315 1198.66 0 1197 0Z" fill="hsl(0 0% 96%)"/>
<path d="M786.424 601.207H786.842L786.855 601.182L786.653 600.977L786.726 600.904H786.582L770.572 584.895L753.855 601.648L723.481 602.015L703.352 621.777L681.394 600.368L720.552 600.187L753.799 566.885L737.147 550.232L704.484 582.895L710.917 589.331L687.007 565.418L719.669 532.756L703.016 516.103L670.349 548.766L652.873 531.289L685.535 498.627L668.887 481.974L636.22 514.634L618.744 497.157L651.406 464.495L634.758 447.842L602.096 480.505L600.636 479.049L600.354 479.332V513.483L600.106 513.23L583.387 496.298L600.106 479.579L600.107 447.383L616.834 430.653L600.186 414L599.617 414.565V414.746L414 600.359L414.02 600.379H414.536L414.277 600.638L430.927 617.288L447.839 600.378L479.334 600.379L479.323 600.359L496.447 583.235L520.147 601.66H486.105L480.778 601.821L448.12 634.48L464.77 651.133L497.429 618.473L514.909 635.947L482.246 668.609L498.899 685.259L531.558 652.599L549.035 670.08L516.372 702.739L533.022 719.389L565.685 686.73L583.164 704.203L550.504 736.87L567.154 753.52L599.817 720.858L600.345 721.389V688.453L616.995 705.314L600.633 721.672L600.347 721.389V754.711L584.346 770.712L600.347 786.713L600.633 787L786.424 601.207ZM566.015 513.669L600.104 548.189L600.353 548.442V582.925L600.104 582.67L548.884 530.802L566.015 513.669ZM531.519 548.167L583.076 600.375L549.024 600.377L514.387 565.298L531.519 548.167ZM634.933 687.376L600.349 652.357V618.766L600.793 618.323L652.064 670.249L634.933 687.376ZM669.428 652.876L618.156 600.953L618.734 600.379H651.638L652.155 600.902L686.559 635.74L669.428 652.876Z" fill="black"/>
</g>
<defs>
<clipPath id="clip0_3_47">
<rect width="1200" height="1200" fill="white"/>
</clipPath>
</defs>
</svg>
