<svg width="109" height="49" viewBox="0 0 109 49" fill="none" xmlns="http://www.w3.org/2000/svg">
<g id="figma-5 1">
<g id="Group 10">
<path id="Vector" d="M31.166 12V32.7058L33.8253 32.7159V22.8604H40.2502V20.2519H33.8253V14.6085H42.1888V12H31.166ZM46.9897 16.2021C47.9539 16.2021 48.7253 15.4205 48.7253 14.4664C48.7253 13.5123 47.9438 12.7308 46.9897 12.7308C46.0255 12.7308 45.2541 13.5123 45.2541 14.4664C45.2541 15.4205 46.0356 16.2021 46.9897 16.2021ZM45.6398 18.8106V32.7058H48.299V18.8106H45.6398Z" fill="#A1A1AA"/>
<path id="Vector_2" fill-rule="evenodd" clip-rule="evenodd" d="M58.1747 18.405C54.6324 18.405 52.166 21.3992 52.166 24.9517C52.166 28.5042 54.6324 31.4984 58.1747 31.4984C59.7987 31.4984 61.1284 30.8691 62.1028 29.8541V31.6912C62.1028 33.9953 60.2961 35.9136 57.9312 35.9136C57.0786 35.9136 56.2361 35.5888 55.5662 35.1219L54.2264 37.4361C55.2922 38.1263 56.5609 38.5221 57.921 38.5221C61.6968 38.5221 64.7519 35.467 64.7519 31.6912V18.811H62.1028V20.0493C61.1284 19.0343 59.7987 18.405 58.1747 18.405ZM54.8354 24.9517C54.8354 22.7492 56.5203 21.0136 58.4691 21.0136C60.4179 21.0136 62.1028 22.7492 62.1028 24.9517C62.1028 27.1542 60.4179 28.8899 58.4691 28.8899C56.5203 28.8899 54.8354 27.1542 54.8354 24.9517Z" fill="#A1A1AA"/>
<path id="Vector_3" d="M74.363 21.0136C72.7897 21.0136 71.5108 22.3533 71.5108 23.9266V32.7062H68.8516V18.811H71.5108V20.0798C72.2924 19.0749 73.4393 18.405 74.9415 18.405C76.8091 18.405 78.2402 19.3287 79.0725 20.7497C79.9961 19.3794 81.4983 18.405 83.3152 18.405C86.35 18.405 88.2379 20.8512 88.248 23.8758V32.7062H85.5887V23.9164C85.5887 22.3432 84.3099 21.0034 82.7366 21.0034C81.1634 21.0034 79.8845 22.3432 79.8845 23.9164V32.7062H77.2252V23.9164C77.2151 22.3432 75.9362 21.0136 74.363 21.0136Z" fill="#A1A1AA"/>
<path id="Vector_4" fill-rule="evenodd" clip-rule="evenodd" d="M102.44 20.3843C101.253 19.1561 99.6286 18.405 97.7508 18.405C93.7924 18.405 90.9707 21.7646 90.9707 25.7637C90.9707 29.7628 93.7822 33.1224 97.7508 33.1224C99.6286 33.1224 101.253 32.3611 102.44 31.1431V32.7062H105.099V18.811H102.44V20.3843ZM93.6401 25.7637C93.6401 23.1146 95.6701 21.0136 98.0452 21.0136C100.41 21.0136 102.45 23.1044 102.45 25.7637C102.45 28.4128 100.42 30.5139 98.0452 30.5139C95.6701 30.5037 93.6401 28.4128 93.6401 25.7637Z" fill="#A1A1AA"/>
</g>
<g id="Group 9">
<path id="Vector_5" d="M11.8008 24.7159C11.8008 21.8427 14.1301 19.5015 17.0153 19.5015C19.8885 19.5015 22.2297 21.8308 22.2297 24.7159C22.2297 27.5892 19.9004 29.9304 17.0153 29.9304C14.142 29.9304 11.8008 27.5892 11.8008 24.7159Z" fill="#A1A1AA"/>
<path id="Vector_6" d="M0.732422 35.7853C0.732422 32.912 3.06179 30.5708 5.94689 30.5708H11.1614V35.7853C11.1614 38.6586 8.832 40.9997 5.94689 40.9997C3.06179 40.9997 0.732422 38.6704 0.732422 35.7853Z" fill="#A1A1AA"/>
<path id="Vector_7" d="M11.8008 8.43223V18.8493H17.0153C19.8885 18.8493 22.2297 16.52 22.2297 13.6349C22.2297 10.7616 19.9004 8.42041 17.0153 8.42041H11.8008V8.43223Z" fill="#A1A1AA"/>
<path id="Vector_8" d="M0.732422 13.6468C0.732422 16.5201 3.06179 18.8613 5.94689 18.8613H11.1614V8.43237H5.94689C3.06179 8.43237 0.732422 10.7617 0.732422 13.6468Z" fill="#A1A1AA"/>
<path id="Vector_9" d="M0.732422 24.7159C0.732422 27.5892 3.06179 29.9304 5.94689 29.9304H11.1614V19.5015H5.94689C3.06179 19.5015 0.732422 21.8427 0.732422 24.7159Z" fill="#A1A1AA"/>
</g>
</g>
</svg>
