<svg width="135" height="49" viewBox="0 0 135 49" fill="none" xmlns="http://www.w3.org/2000/svg">
<g id="Company logo">
<g id="Vector">
<path fill-rule="evenodd" clip-rule="evenodd" d="M17.43 5.70996C7.79992 5.70996 0 13.5099 0 23.14C0 30.8527 4.98934 37.3672 11.9178 39.6767C12.7893 39.8292 13.1161 39.3063 13.1161 38.8487C13.1161 38.4348 13.0943 37.0622 13.0943 35.6024C8.715 36.4085 7.58205 34.5348 7.23345 33.5544C7.03736 33.0533 6.18765 31.5064 5.44687 31.0924C4.83682 30.7656 3.96532 29.9594 5.42509 29.9377C6.7977 29.9159 7.77814 31.2013 8.10495 31.7242C9.67365 34.3605 12.1792 33.6197 13.1814 33.1622C13.3339 32.0293 13.7915 31.2667 14.2926 30.8309C10.4144 30.3952 6.36195 28.8919 6.36195 22.2249C6.36195 20.3294 7.03736 18.7607 8.14852 17.5406C7.97422 17.1048 7.36417 15.3182 8.32282 12.9216C8.32282 12.9216 9.78259 12.4641 13.1161 14.7082C14.5105 14.316 15.992 14.1199 17.4736 14.1199C18.9551 14.1199 20.4367 14.316 21.8311 14.7082C25.1646 12.4423 26.6243 12.9216 26.6243 12.9216C27.583 15.3182 26.9729 17.1048 26.7986 17.5406C27.9098 18.7607 28.5852 20.3076 28.5852 22.2249C28.5852 28.9136 24.5109 30.3952 20.6328 30.8309C21.2646 31.3756 21.8093 32.4214 21.8093 34.0555C21.8093 36.3868 21.7875 38.2605 21.7875 38.8487C21.7875 39.3063 22.1143 39.851 22.9858 39.6767C26.446 38.5085 29.4527 36.2847 31.5828 33.3182C33.7129 30.3518 34.8591 26.792 34.86 23.14C34.86 13.5099 27.0601 5.70996 17.43 5.70996Z" fill="#A1A1AA"/>
<path d="M81.2557 31.553H81.2151C81.2334 31.553 81.2456 31.5733 81.2639 31.5753H81.2761L81.2557 31.555V31.553ZM81.2639 31.5753C81.0748 31.5774 80.5989 31.677 80.0966 31.677C78.5105 31.677 77.9615 30.945 77.9615 29.9892V23.6223H81.1947C81.3777 23.6223 81.5201 23.4596 81.5201 23.236V19.779C81.5201 19.596 81.3574 19.4333 81.1947 19.4333H77.9615V15.1426C77.9615 14.98 77.8598 14.8783 77.6768 14.8783H73.2844C73.1014 14.8783 72.9997 14.98 72.9997 15.1426V19.5553C72.9997 19.5553 70.7832 20.1044 70.6409 20.1247C70.4782 20.1654 70.3765 20.3077 70.3765 20.4704V23.236C70.3765 23.4596 70.5392 23.6223 70.7222 23.6223H72.9794V30.2922C72.9794 35.2539 76.4363 35.7623 78.7952 35.7623C79.873 35.7623 81.1744 35.4166 81.3777 35.3149C81.4998 35.2743 81.5608 35.1319 81.5608 34.9896V31.9393C81.5636 31.8528 81.5351 31.7682 81.4806 31.701C81.426 31.6337 81.3491 31.5884 81.2639 31.5733V31.5753ZM129.45 27.0996C129.45 23.419 127.965 22.9309 126.399 23.0936C125.179 23.175 124.203 23.785 124.203 23.785V30.9429C124.203 30.9429 125.2 31.6343 126.684 31.675C128.779 31.736 129.45 30.9836 129.45 27.0996ZM134.391 26.7743C134.391 33.7492 132.134 35.742 128.189 35.742C124.854 35.742 123.064 34.0542 123.064 34.0542C123.064 34.0542 122.983 34.9896 122.881 35.1116C122.82 35.2336 122.719 35.2743 122.597 35.2743H119.587C119.384 35.2743 119.201 35.1116 119.201 34.9286L119.242 12.3364C119.242 12.1534 119.404 11.9907 119.587 11.9907H123.919C124.102 11.9907 124.264 12.1534 124.264 12.3364V20.0027C124.264 20.0027 125.932 18.9249 128.372 18.9249L128.352 18.8843C130.792 18.8843 134.391 19.7993 134.391 26.7743ZM116.659 19.4333H112.389C112.165 19.4333 112.043 19.596 112.043 19.8197V30.8819C112.043 30.8819 110.924 31.675 109.399 31.675C107.874 31.675 107.427 30.9836 107.427 29.4585V19.7993C107.427 19.6163 107.264 19.4537 107.081 19.4537H102.729C102.546 19.4537 102.384 19.6163 102.384 19.7993V30.1905C102.384 34.6642 104.885 35.7827 108.322 35.7827C111.148 35.7827 113.446 34.2169 113.446 34.2169C113.446 34.2169 113.548 35.0099 113.609 35.1319C113.649 35.2336 113.792 35.3149 113.934 35.3149H116.659C116.883 35.3149 117.005 35.1523 117.005 34.9693L117.045 19.779C117.045 19.596 116.883 19.4333 116.659 19.4333ZM68.465 19.413H64.1337C63.9507 19.413 63.788 19.596 63.788 19.8197V34.7456C63.788 35.1523 64.0523 35.2946 64.398 35.2946H68.3023C68.709 35.2946 68.8107 35.1116 68.8107 34.7456V19.7587C68.8107 19.5757 68.648 19.413 68.465 19.413ZM66.3298 12.5398C64.7641 12.5398 63.5236 13.7802 63.5236 15.346C63.5236 16.9118 64.7641 18.1522 66.3298 18.1522C67.855 18.1522 69.0954 16.9118 69.0954 15.346C69.0954 13.7802 67.855 12.5398 66.3298 12.5398ZM99.8623 12.0314H95.5716C95.3886 12.0314 95.2259 12.1941 95.2259 12.3771V20.6941H88.495V12.3771C88.495 12.1941 88.3323 12.0314 88.1493 12.0314H83.818C83.6349 12.0314 83.4723 12.1941 83.4723 12.3771V34.9693C83.4723 35.1523 83.6553 35.3149 83.818 35.3149H88.1493C88.3323 35.3149 88.495 35.1523 88.495 34.9693V25.3101H95.2259L95.1852 34.9693C95.1852 35.1523 95.3479 35.3149 95.5309 35.3149H99.8623C100.045 35.3149 100.208 35.1523 100.208 34.9693V12.3771C100.208 12.1941 100.045 12.0314 99.8623 12.0314ZM61.4901 22.0362V33.7085C61.4901 33.7898 61.4698 33.9322 61.3681 33.9728C61.3681 33.9728 58.8262 35.7827 54.6372 35.7827C49.5738 35.7827 43.575 34.1965 43.575 23.7443C43.575 13.2922 48.8214 11.1366 53.9458 11.157C58.3789 11.157 60.1683 12.1534 60.453 12.3364C60.5344 12.4381 60.575 12.5194 60.575 12.6211L59.721 16.2407C59.721 16.4237 59.538 16.6474 59.3143 16.5864C58.5822 16.3627 57.4841 15.9154 54.9016 15.9154C51.9123 15.9154 48.6994 16.7694 48.6994 23.5003C48.6994 30.2312 51.7497 31.0243 53.9458 31.0243C55.8167 31.0243 56.4877 30.8006 56.4877 30.8006V26.1235H53.4985C53.2748 26.1235 53.1121 25.9609 53.1121 25.7778V22.0362C53.1121 21.8532 53.2748 21.6905 53.4985 21.6905H61.1038C61.3274 21.6905 61.4901 21.8532 61.4901 22.0362Z" fill="#A1A1AA"/>
</g>
</g>
</svg>
