<svg width="117" height="49" viewBox="0 0 117 49" fill="none" xmlns="http://www.w3.org/2000/svg">
<g id="Company logo">
<path id="Vector" d="M35.1867 21.3788H24.4677L33.7504 16.0471L31.9096 12.8738L22.6257 18.2054L27.9841 8.97128L24.7949 7.13962L19.4354 16.3714V5.71045H15.7514V16.3726L10.3919 7.13962L7.20149 8.97128L12.5598 18.2031L3.27831 12.8738L1.43631 16.0471L10.719 21.3788H0V25.0433H10.7178L1.43631 30.3749L3.27714 33.5483L12.561 28.2166L7.20149 37.4508L10.3907 39.2824L15.7514 30.0494V40.7104H19.4354V29.8208L24.8933 39.2241L27.8844 37.5068L22.4252 28.1011L31.9072 33.5471L33.7492 30.3738L24.4677 25.0421H35.1855V21.3788H35.1867ZM17.5934 28.1921C16.9357 28.1922 16.2845 28.0634 15.6769 27.813C15.0693 27.5627 14.5172 27.1957 14.0522 26.7331C13.5871 26.2704 13.2182 25.7212 12.9664 25.1167C12.7147 24.5122 12.5851 23.8642 12.585 23.2099C12.5849 22.5555 12.7144 21.9075 12.966 21.303C13.2176 20.6984 13.5864 20.1491 14.0513 19.6863C14.5163 19.2235 15.0683 18.8564 15.6758 18.606C16.2834 18.3555 16.9346 18.2265 17.5922 18.2264C18.9203 18.2263 20.1941 18.7511 21.1334 19.6855C22.0726 20.6198 22.6004 21.8872 22.6005 23.2087C22.6007 24.5302 22.0732 25.7977 21.1342 26.7323C20.1952 27.6668 18.9215 28.192 17.5934 28.1921Z" fill="#A1A1AA"/>
<path id="Vector_2" d="M44.6836 36.0121V10.4084H49.4064V36.0121H44.6836ZM89.9808 18.6124H94.4902V20.7358C95.4493 19.0383 97.6876 18.1178 99.6047 18.1178C101.985 18.1178 103.902 19.1444 104.789 21.0169C106.173 18.8936 108.021 18.1178 110.33 18.1178C113.561 18.1178 116.649 20.0626 116.649 24.7304V36.0121H112.07V25.6859C112.07 23.8111 111.146 22.3959 108.979 22.3959C106.954 22.3959 105.746 23.9534 105.746 25.8283V36.0133H101.061V25.6859C101.061 23.8111 100.102 22.3959 97.9702 22.3959C95.9101 22.3959 94.7024 23.9184 94.7024 25.8283V36.0133H89.9808V18.6124ZM60.0797 36.5161C54.7589 36.5161 50.9061 32.5879 50.9061 27.3123C50.9061 22.1206 54.7472 18.1003 60.0797 18.1003C65.438 18.1003 69.2533 22.1579 69.2533 27.3123C69.2533 32.5506 65.3982 36.5161 60.0797 36.5161ZM60.0797 22.3586C58.7599 22.3605 57.4948 22.8832 56.5619 23.8121C55.629 24.741 55.1045 26.0002 55.1036 27.3134C55.1045 28.6267 55.629 29.8859 56.5619 30.8148C57.4948 31.7437 58.7599 32.2664 60.0797 32.2683C61.3993 32.2661 62.6641 31.7432 63.5967 30.8144C64.5294 29.8855 65.0537 28.6265 65.0546 27.3134C65.0537 26.0004 64.5294 24.7414 63.5967 23.8125C62.6641 22.8836 61.3993 22.3608 60.0797 22.3586ZM79.3404 36.5161C74.0195 36.5161 70.1667 32.5879 70.1667 27.3123C70.1667 22.1206 74.0078 18.1003 79.3404 18.1003C84.6987 18.1003 88.514 22.1579 88.514 27.3123C88.514 32.5506 84.6565 36.5161 79.3404 36.5161ZM79.3404 22.2991C78.0054 22.3013 76.7259 22.8301 75.7823 23.7697C74.8387 24.7093 74.308 25.9828 74.3068 27.3111C74.308 28.6394 74.8387 29.913 75.7823 30.8525C76.7259 31.7921 78.0054 32.3209 79.3404 32.3231C80.6753 32.3209 81.9548 31.7921 82.8984 30.8525C83.842 29.913 84.3727 28.6394 84.3739 27.3111C84.3727 25.9828 83.842 24.7093 82.8984 23.7697C81.9548 22.8301 80.6753 22.3013 79.3404 22.2991Z" fill="#A1A1AA"/>
</g>
</svg>
