<svg width="129" height="49" viewBox="0 0 129 49" fill="none" xmlns="http://www.w3.org/2000/svg">
<g id="Company logo">
<g id="Vector">
<path d="M44.9356 35.4849V20.9298H45.1949L55.7896 35.4849H59.1236V14.1106H55.4192V28.629H55.1598L44.5652 14.1106H41.2312V35.4849H44.9356ZM69.6071 35.8149C74.497 35.8149 77.4976 32.6619 77.4976 27.3825C77.4976 22.1397 74.497 18.9501 69.6071 18.9501C64.7543 18.9501 61.7167 22.1397 61.7167 27.3825C61.7537 32.6619 64.7173 35.8149 69.6071 35.8149ZM69.6071 32.7352C67.014 32.7352 65.5322 30.7921 65.5322 27.3825C65.5322 24.0095 67.014 22.0297 69.6071 22.0297C72.2002 22.0297 73.682 24.0095 73.682 27.3825C73.682 30.7921 72.2002 32.7352 69.6071 32.7352ZM80.8686 15.3205V19.39H78.2755V22.323H80.8686V31.1587C80.8686 34.3117 82.3503 35.5582 86.1289 35.5582C86.8327 35.5582 87.5366 35.4849 88.0922 35.3749V32.5152C87.6477 32.5519 87.3513 32.5886 86.8327 32.5886C85.2769 32.5886 84.573 31.892 84.573 30.2788V22.323H88.0922V19.39H84.573V15.3205H80.8686ZM90.3149 35.4849H94.0193V19.28H90.3149V35.4849ZM92.1671 16.6037C93.3896 16.6037 94.3898 15.6138 94.3898 14.4039C94.3898 13.1574 93.3896 12.1675 92.1671 12.1675C90.9446 12.1675 89.9444 13.1574 89.9444 14.4039C89.9444 15.6138 90.9446 16.6037 92.1671 16.6037ZM104.169 35.8149C109.059 35.8149 112.06 32.6619 112.06 27.3825C112.06 22.1397 109.059 18.9501 104.169 18.9501C99.3166 18.9501 96.279 22.1397 96.279 27.3825C96.279 32.6619 99.2426 35.8149 104.169 35.8149ZM104.169 32.7352C101.576 32.7352 100.095 30.7921 100.095 27.3825C100.095 24.0095 101.576 22.0297 104.169 22.0297C106.725 22.0297 108.244 24.0095 108.244 27.3825C108.207 30.7921 106.725 32.7352 104.169 32.7352ZM114.245 35.4849H117.95V26.0626C117.95 23.6795 119.358 22.1764 121.543 22.1764C123.803 22.1764 124.84 23.4229 124.84 25.8793V35.4849H128.545V24.9994C128.545 21.1132 126.544 18.9501 122.914 18.9501C120.469 18.9501 118.839 20.0499 118.061 21.8831H117.802V19.28H114.208C114.245 19.28 114.245 35.4849 114.245 35.4849Z" fill="#A1A1AA"/>
<path fill-rule="evenodd" clip-rule="evenodd" d="M5.71206 12.7425C6.79023 13.6123 7.18021 13.5437 9.19893 13.4063L28.2162 12.2619C28.6291 12.2619 28.285 11.8499 28.1474 11.8041L24.9816 9.53803C24.3852 9.08024 23.5594 8.53089 22.0224 8.66823L3.62452 10.0187C2.95926 10.0874 2.82162 10.4307 3.0969 10.6825L5.71206 12.7425ZM6.85905 17.1602V37.1198C6.85905 38.1956 7.38668 38.5847 8.60249 38.5161L29.5008 37.3029C30.7166 37.2343 30.8543 36.5018 30.8543 35.632V15.8097C30.8543 14.9399 30.5102 14.4593 29.7761 14.5279L7.93723 15.8097C7.13433 15.8784 6.85905 16.2904 6.85905 17.1602ZM27.4821 18.236C27.6197 18.8311 27.4821 19.4492 26.8857 19.5178L25.8763 19.7238V34.4646C25.0046 34.9224 24.2017 35.1971 23.5135 35.1971C22.4353 35.1971 22.16 34.8538 21.3571 33.8466L14.7733 23.5235V33.5033L16.8609 33.9611C16.8609 33.9611 16.8609 35.1742 15.1863 35.1742L10.5524 35.4489C10.4148 35.1742 10.5524 34.5104 11.0112 34.3731L12.227 34.0297V20.8454L10.5524 20.7081C10.4148 20.1129 10.7589 19.2432 11.6994 19.1745L16.6774 18.8311L23.5364 29.2687V20.0443L21.793 19.8383C21.6553 19.1058 22.2059 18.5565 22.8712 18.4878L27.4821 18.236ZM2.08754 8.18755L21.2424 6.79129C23.5823 6.58528 24.2017 6.72262 25.6698 7.79843L31.7719 12.0788C32.7812 12.8112 33.1253 13.0172 33.1253 13.8184V37.3258C33.1253 38.7907 32.5977 39.6605 30.7166 39.7979L8.48779 41.1484C7.06552 41.217 6.40026 41.011 5.66618 40.0725L1.147 34.2357C0.3441 33.1599 0 32.3588 0 31.4203V10.5223C0 9.30913 0.550559 8.32488 2.08754 8.18755Z" fill="#A1A1AA"/>
</g>
</g>
</svg>
