<svg width="121" height="49" viewBox="0 0 121 49" fill="none" xmlns="http://www.w3.org/2000/svg">
<g id="Company logo">
<path id="Vector" d="M37.9243 33.1364L39.3924 29.705C40.9999 30.8954 43.0966 31.5254 45.1937 31.5254C46.7315 31.5254 47.7099 30.9305 47.7099 30.0202C47.6749 27.499 38.4486 29.4599 38.3784 23.1212C38.3434 19.8998 41.2094 17.4137 45.2639 17.4137C47.6749 17.4137 50.0868 18.0091 51.799 19.375L50.4271 22.8796C48.8518 21.8666 46.906 21.1604 45.0539 21.1604C43.7958 21.1604 42.9567 21.7554 42.9567 22.5263C42.9918 25.0124 52.2887 23.6465 52.3935 29.705C52.3935 32.9966 49.5971 35.3078 45.6128 35.3078C42.6775 35.3078 39.9864 34.6075 37.9238 33.1364H37.9243ZM96.3824 28.4624C96.0118 29.1208 95.4727 29.6689 94.8205 30.0503C94.1682 30.4316 93.4263 30.6327 92.6707 30.6327C90.3159 30.6327 88.4072 28.72 88.4072 26.3607C88.4072 24.0014 90.3159 22.0887 92.6707 22.0887C93.4263 22.0887 94.1682 22.2898 94.8205 22.6712C95.4727 23.0526 96.0118 23.6006 96.3824 24.259L100.464 21.9935C98.9352 19.2612 96.019 17.4137 92.6707 17.4137C87.7391 17.4137 83.7412 21.419 83.7412 26.3607C83.7412 31.3019 87.7391 35.3078 92.6707 35.3078C96.019 35.3078 98.9352 33.4602 100.464 30.728L96.3824 28.4624ZM55.042 34.9574H60.1446V9.96582H55.0425L55.042 34.9574ZM103.041 9.96582V34.9574H108.143V27.4699L114.19 34.9574H120.712L113.023 26.0625L120.152 17.7625H113.91L108.143 24.663V9.96582H103.041ZM75.8648 17.7635V19.795C75.0262 18.3941 72.9642 17.4137 70.7973 17.4137C66.3238 17.4137 62.7941 21.3709 62.7941 26.3432C62.7941 31.3154 66.3238 35.3078 70.7973 35.3078C72.9642 35.3078 75.0262 34.3273 75.8648 32.9264V34.9574H80.9674V17.7635H75.8648ZM75.8648 28.497C75.131 29.7225 73.5932 30.6322 71.881 30.6322C69.5257 30.6322 67.617 28.72 67.617 26.3607C67.617 24.0014 69.5257 22.0887 71.881 22.0887C73.5932 22.0887 75.131 23.034 75.8648 24.2941V28.497Z" fill="#A1A1AA"/>
<g id="Group 11">
<path id="Vector_2" d="M10.978 9.41357C9.32448 9.41357 7.98417 10.7569 7.98417 12.4135C7.98378 12.807 8.0609 13.1968 8.21115 13.5606C8.36139 13.9243 8.58181 14.2549 8.85981 14.5335C9.13782 14.812 9.46797 15.0331 9.83142 15.1841C10.1949 15.3351 10.5845 15.413 10.978 15.4134H13.9724V12.4135C13.9731 11.6186 13.658 10.856 13.0965 10.2934C12.5349 9.73086 11.7729 9.41437 10.978 9.41357ZM10.978 17.4133H2.99388C1.3403 17.4133 0 18.7566 0 20.4137C0 22.0703 1.3403 23.4136 2.99388 23.4136H10.9785C12.6316 23.4136 13.9724 22.0703 13.9724 20.4137C13.9724 18.7566 12.6316 17.4133 10.978 17.4133Z" fill="#A1A1AA"/>
<path id="Vector_3" d="M29.9412 20.4137C29.9412 18.7566 28.6004 17.4133 26.9468 17.4133C25.2932 17.4133 23.9529 18.7566 23.9529 20.4137V23.4136H26.9468C27.7417 23.4128 28.5037 23.0963 29.0652 22.5337C29.6268 21.9711 29.9418 21.2085 29.9412 20.4137ZM21.957 20.4137V12.4135C21.9577 11.6186 21.6426 10.856 21.081 10.2934C20.5195 9.73086 19.7575 9.41437 18.9626 9.41357C17.3091 9.41357 15.9688 10.7569 15.9688 12.4135V20.4132C15.9688 22.0708 17.3091 23.4141 18.9626 23.4141C19.7575 23.4133 20.5195 23.0968 21.081 22.5342C21.6426 21.9716 21.9577 21.209 21.957 20.4142" fill="#A1A1AA"/>
<path id="Vector_4" d="M18.9626 39.4136C19.7575 39.4128 20.5195 39.0963 21.081 38.5337C21.6426 37.9711 21.9577 37.2085 21.957 36.4137C21.9577 35.6188 21.6426 34.8562 21.081 34.2936C20.5195 33.7311 19.7575 33.4146 18.9626 33.4138H15.9688V36.4137C15.9688 38.0703 17.3091 39.4136 18.9626 39.4136ZM18.9626 31.4139H26.9473C28.6004 31.4139 29.9412 30.0705 29.9412 28.4135C29.9418 27.6186 29.6268 26.856 29.0652 26.2934C28.5037 25.7309 27.7417 25.4144 26.9468 25.4136H18.9626C17.3091 25.4136 15.9688 26.7569 15.9688 28.4135C15.9684 28.807 16.0455 29.1968 16.1957 29.5606C16.346 29.9243 16.5664 30.2549 16.8444 30.5335C17.1224 30.812 17.4526 31.0331 17.816 31.1841C18.1794 31.3351 18.5691 31.413 18.9626 31.4134" fill="#A1A1AA"/>
<path id="Vector_5" d="M1.51064e-06 28.4135C-0.000393626 28.807 0.0767319 29.1968 0.226974 29.5606C0.377217 29.9243 0.597634 30.2549 0.875642 30.5335C1.15365 30.812 1.4838 31.0331 1.84725 31.1841C2.2107 31.3351 2.60032 31.413 2.99388 31.4134C3.78875 31.4126 4.55075 31.0961 5.11229 30.5335C5.67383 29.9709 5.98892 29.2083 5.98826 28.4135V25.4136H2.99388C1.3403 25.4136 1.51064e-06 26.7569 1.51064e-06 28.4135ZM7.98417 28.4135V36.4132C7.98417 38.0703 9.32448 39.4136 10.9781 39.4136C11.7729 39.4128 12.5349 39.0963 13.0965 38.5337C13.658 37.9711 13.9731 37.2085 13.9724 36.4137V28.4135C13.9728 28.0199 13.8957 27.63 13.7454 27.2663C13.5951 26.9025 13.3747 26.5719 13.0966 26.2933C12.8186 26.0147 12.4883 25.7936 12.1248 25.6427C11.7613 25.4918 11.3716 25.4139 10.9781 25.4136C9.32448 25.4136 7.98417 26.7569 7.98417 28.4135Z" fill="#A1A1AA"/>
</g>
</g>
</svg>
